<?xml version="1.0" encoding="iso-8859-1"?>
<!-- Generator: Adobe Illustrator 19.0.0, SVG Export Plug-In . SVG Version: 6.00 Build 0)  -->
<svg version="1.1" id="Capa_1" xmlns="http://www.w3.org/2000/svg" xmlns:xlink="http://www.w3.org/1999/xlink" x="0px" y="0px"
	 viewBox="0 0 512 512" style="enable-background:new 0 0 512 512;" xml:space="preserve">
<polygon style="fill:#00C3FF;" points="431,512 431,0 81,0 81,512 196,512 256,166 317,512 "/>
<g>
	<polygon style="fill:#00AAF0;" points="256,0 256,166 317,512 431,512 431,0 	"/>
	<polygon style="fill:#00AAF0;" points="271,80 314.787,80 431,196.213 431,153.787 357.213,80 431,80 431,50 271,50 271,0 241,0 
		241,50 81,50 81,80 154.787,80 81,153.787 81,196.213 197.213,80 241,80 241,166 271,166 	"/>
</g>
<polygon style="fill:#0096DC;" points="431,50 271,50 271,0 256,0 256,166 271,166 271,80 314.787,80 431,196.213 431,153.787 
	357.213,80 431,80 "/>
<g>
</g>
<g>
</g>
<g>
</g>
<g>
</g>
<g>
</g>
<g>
</g>
<g>
</g>
<g>
</g>
<g>
</g>
<g>
</g>
<g>
</g>
<g>
</g>
<g>
</g>
<g>
</g>
<g>
</g>
</svg>
