<?xml version="1.0" encoding="iso-8859-1"?>
<!-- Generator: Adobe Illustrator 19.0.0, SVG Export Plug-In . SVG Version: 6.00 Build 0)  -->
<svg version="1.1" id="Capa_1" xmlns="http://www.w3.org/2000/svg" xmlns:xlink="http://www.w3.org/1999/xlink" x="0px" y="0px"
	 viewBox="0 0 512 512" style="enable-background:new 0 0 512 512;" xml:space="preserve">
<rect x="271.909" y="37.92" style="fill:#063E8B;" width="60.022" height="39.014"/>
<path style="fill:#0A4EAF;" d="M248.545,474.08H36.097c-14.679,0-27.373-8.389-33.129-21.893c-5.756-13.504-3.016-28.47,7.149-39.06
	l90.34-94.103h341.712l-117.851,122.76C304.614,462.308,276.995,474.08,248.545,474.08z"/>
<path style="fill:#063E8B;" d="M255.906,319.023V473.81c25.808-1.841,50.412-13.279,68.411-32.028l117.851-122.761H255.906V319.023z
	"/>
<path style="fill:#EDEDF9;" d="M512,328.026H91.846V172.97c0-57.918,47.12-105.038,105.038-105.038h210.077
	C464.88,67.931,512,115.051,512,172.97V328.026z"/>
<path style="fill:#E1E4FB;" d="M406.961,67.931H255.906v260.095H512V172.97C512,115.05,464.881,67.931,406.961,67.931z"/>
<path style="fill:#00C3FF;" d="M406.961,67.931h-15.005v260.095H512V172.97C512,115.05,464.881,67.931,406.961,67.931z"/>
<g>
</g>
<g>
</g>
<g>
</g>
<g>
</g>
<g>
</g>
<g>
</g>
<g>
</g>
<g>
</g>
<g>
</g>
<g>
</g>
<g>
</g>
<g>
</g>
<g>
</g>
<g>
</g>
<g>
</g>
</svg>
