<svg id="Capa_1" enable-background="new 0 0 512 512" height="512" viewBox="0 0 512 512" width="512" xmlns="http://www.w3.org/2000/svg"><g><g><path d="m385.257 141.176 73.627-85.103-28.123-54.945h-91.009l-28.123 54.945z" fill="#95d6a4"/><g fill="#78c2a4"><path d="m355.679 56.057v.011h-44.051l28.124-54.94h27.228z"/><path d="m355.679 56.068h59.163l-17.513 50.376-12.074 34.727-12.063-34.727z"/><path d="m458.893 56.068h-44.051v-.011l-11.301-54.929h27.228z"/></g><path d="m385.257 141.176c-69.997 0-126.743 56.746-126.743 126.756 0 69.997 56.746 126.743 126.743 126.743s126.743-56.746 126.743-126.743c0-70.01-56.746-126.756-126.743-126.756zm0 215.327c-48.92 0-88.584-39.652-88.584-88.571 0-48.932 39.664-88.584 88.584-88.584s88.583 39.652 88.583 88.584c0 48.92-39.664 88.571-88.583 88.571z" fill="#ffd064"/><g fill="#ffc250"><path d="m278.849 267.932c0-66.586 51.333-121.17 116.576-126.35-3.355-.266-6.745-.406-10.168-.406-69.997 0-126.743 56.746-126.743 126.756 0 69.997 56.746 126.743 126.743 126.743 3.423 0 6.813-.14 10.168-.406-65.243-5.18-116.576-59.763-116.576-126.337z"/><path d="m395.424 355.905c3.339.382 6.727.598 10.168.598 48.92 0 88.584-39.651 88.584-88.571 0-48.932-39.664-88.584-88.584-88.584-3.441 0-6.829.217-10.168.598 44.129 5.046 78.416 42.495 78.416 87.986 0 45.479-34.287 82.927-78.416 87.973z"/></g><path d="m417.363 106.459h-64.212c-10.317 0-18.68 8.363-18.68 18.68 0 10.317 8.363 18.68 18.68 18.68h64.212c10.317 0 18.68-8.363 18.68-18.68 0-10.317-8.364-18.68-18.68-18.68z" fill="#ffd064"/><path d="m374.717 138.352c3.389 3.376 8.054 5.462 13.213 5.462h-34.771c-5.159 0-9.824-2.086-13.213-5.462-3.389-3.389-5.475-8.054-5.475-13.213 0-10.317 8.37-18.688 18.688-18.688h34.771c-10.317 0-18.688 8.37-18.688 18.688 0 5.158 2.086 9.824 5.475 13.213z" fill="#ffc250"/></g><path d="m289.914 167.425v207.303s-1.865 10.632-5.965 27.248c-5.645 22.798-15.525 56.876-30.658 90.275-5.141 11.353-16.483 18.615-28.948 18.615h-121.716c-12.465 0-23.807-7.263-28.948-18.615-15.133-33.399-25.013-67.477-30.658-90.275-4.1-16.617-5.965-27.248-5.965-27.248v-207.303s10.467-59.781 36.623-117.513c5.141-11.353 16.483-18.626 28.948-18.626h121.716c12.465 0 23.807 7.273 28.948 18.626 26.156 57.732 36.623 117.513 36.623 117.513z" fill="#407093"/><path d="m125.235 510.872h-22.619c-12.452 0-23.798-7.262-28.95-18.621-26.145-57.739-36.61-117.526-36.61-117.526v-207.295s10.465-59.787 36.61-117.526c5.152-11.347 16.499-18.621 28.95-18.621h22.619c-7.833 0-14.959 7.275-18.187 18.621-16.437 57.738-23.016 117.526-23.016 117.526v207.295s6.58 59.787 23.016 117.526c3.227 11.358 10.353 18.621 18.187 18.621z" fill="#365e7d"/><path d="m289.914 187.802v186.926s-1.865 10.632-5.965 27.248c-29.886 32.554-72.793 52.962-120.469 52.962-47.677 0-90.574-20.408-120.459-52.962-4.1-16.617-5.965-27.248-5.965-27.248v-186.926c29.978-36.53 75.481-59.833 126.424-59.833 50.952 0 96.455 23.303 126.434 59.833z" fill="#365e7d"/><circle cx="163.484" cy="271.079" fill="#e49542" r="163.484"/><path d="m173.431 434.27c-3.286.196-6.614.299-9.952.299-90.285 0-163.479-73.194-163.479-163.49 0-90.285 73.194-163.479 163.479-163.479 3.338 0 6.665.103 9.952.299-85.66 5.14-153.538 76.233-153.538 163.181 0 86.957 67.878 158.05 153.538 163.19z" fill="#e28424"/><path d="m289.916 271.077c0 69.831-56.609 126.428-126.427 126.428-6.468 0-12.824-.484-19.031-1.428-31.954-4.817-59.998-21.601-79.39-45.647-17.517-21.688-28.007-49.285-28.007-79.353 0-69.818 56.597-126.427 126.427-126.427 30.055 0 57.665 10.49 79.352 28.007 24.047 19.403 40.831 47.435 45.66 79.39.932 6.206 1.416 12.562 1.416 19.03z" fill="#d3effb"/><path d="m288.501 252.046-144.044 144.031c-31.954-4.817-59.998-21.601-79.39-45.647l177.773-177.773c24.047 19.403 40.832 47.435 45.661 79.389z" fill="#ecf9f9"/><path d="m163.484 278.806c-2.049 0-4.015-.814-5.463-2.263l-56.752-56.753c-3.018-3.017-3.018-7.909 0-10.927s7.91-3.018 10.927 0l51.289 51.289 20.731-20.731c3.017-3.017 7.909-3.017 10.927 0s3.018 7.909 0 10.927l-26.194 26.194c-1.45 1.45-3.415 2.264-5.465 2.264z" fill="#365e7d"/><g fill="#407093"><path d="m82.738 278.806h-45.682c-4.267 0-7.726-3.459-7.726-7.726s3.459-7.726 7.726-7.726h45.683c4.267 0 7.726 3.459 7.726 7.726s-3.459 7.726-7.727 7.726z"/><path d="m289.913 278.806h-45.683c-4.267 0-7.726-3.459-7.726-7.726s3.459-7.726 7.726-7.726h45.683c4.267 0 7.726 3.459 7.726 7.726.001 4.267-3.458 7.726-7.726 7.726z"/><path d="m163.484 198.059c-4.267 0-7.726-3.459-7.726-7.726v-45.683c0-4.267 3.459-7.726 7.726-7.726s7.726 3.459 7.726 7.726v45.683c.001 4.267-3.458 7.726-7.726 7.726z"/><path d="m163.484 405.234c-4.267 0-7.726-3.459-7.726-7.726v-45.683c0-4.267 3.459-7.726 7.726-7.726s7.726 3.459 7.726 7.726v45.683c.001 4.267-3.458 7.726-7.726 7.726z"/></g><path d="m163.484 405.234c-73.973 0-134.155-60.182-134.155-134.155s60.182-134.155 134.155-134.155 134.156 60.182 134.156 134.155-60.182 134.155-134.156 134.155zm0-252.857c-65.453 0-118.702 53.25-118.702 118.703s53.25 118.702 118.702 118.702 118.703-53.249 118.703-118.702-53.25-118.703-118.703-118.703z" fill="#e28424"/></g></svg>